<?xml version="1.0" standalone="no"?>
<!DOCTYPE svg PUBLIC "-//W3C//DTD SVG 20010904//EN"
 "http://www.w3.org/TR/2001/REC-SVG-20010904/DTD/svg10.dtd">
<svg version="1.0" xmlns="http://www.w3.org/2000/svg"
 width="99.000000pt" height="91.000000pt" viewBox="0 0 99.000000 91.000000"
 preserveAspectRatio="xMidYMid meet">

<g transform="translate(0.000000,91.000000) scale(0.100000,-0.100000)"
fill="#8d1703" stroke="none">
<path d="M412 839 c-120 -20 -245 -113 -296 -219 -77 -159 -45 -334 83 -460
61 -60 115 -90 200 -110 93 -22 223 2 315 59 41 26 109 98 130 139 l15 30 -92
19 -92 20 -36 -32 c-54 -49 -126 -69 -191 -56 -54 12 -103 38 -132 70 -17 18
-17 19 1 25 20 6 285 66 428 97 50 11 102 22 118 25 24 6 27 11 27 45 0 90
-75 217 -165 279 -88 60 -208 87 -313 69z m175 -204 c28 -14 58 -34 67 -44 17
-18 16 -19 -1 -25 -60 -18 -376 -86 -380 -82 -10 10 7 53 36 93 60 83 178 107
278 58z"/>
</g>
</svg>
